<svg width="13" height="13" viewBox="0 0 13 13" fill="none" xmlns="http://www.w3.org/2000/svg">
<path d="M13.0031 6.5C13.0031 8.22391 12.3183 9.87721 11.0993 11.0962C9.88032 12.3152 8.22702 13 6.50311 13C4.77921 13 3.12591 12.3152 1.90692 11.0962C0.687932 9.87721 0.00311279 8.22391 0.00311279 6.5C0.00311279 4.77609 0.687932 3.12279 1.90692 1.90381C3.12591 0.68482 4.77921 0 6.50311 0C8.22702 0 9.88032 0.68482 11.0993 1.90381C12.3183 3.12279 13.0031 4.77609 13.0031 6.5ZM6.50311 2.84375C6.50311 2.73601 6.46031 2.63267 6.38412 2.55649C6.30794 2.4803 6.20461 2.4375 6.09686 2.4375C5.98912 2.4375 5.88579 2.4803 5.8096 2.55649C5.73341 2.63267 5.69061 2.73601 5.69061 2.84375V7.3125C5.69064 7.38411 5.70959 7.45444 5.74554 7.51636C5.7815 7.57829 5.83318 7.62961 5.89536 7.66512L8.73911 9.29012C8.83243 9.34056 8.94178 9.35249 9.04379 9.32337C9.14579 9.29425 9.23236 9.22639 9.28499 9.13429C9.33762 9.04218 9.35214 8.93315 9.32544 8.83048C9.29874 8.72782 9.23294 8.63967 9.14211 8.58488L6.50311 7.07688V2.84375Z" fill="#037E8C"/>
</svg>
