<svg width="32" height="30" viewBox="0 0 32 30" fill="none" xmlns="http://www.w3.org/2000/svg">
<g clip-path="url(#clip0_18843_6)">
<mask id="mask0_18843_6" style="mask-type:luminance" maskUnits="userSpaceOnUse" x="0" y="0" width="32" height="30">
<path d="M31.8046 0H0V29.8674H31.8046V0Z" fill="white"/>
</mask>
<g mask="url(#mask0_18843_6)">
<path d="M22.6356 7.02621C22.6356 6.61569 22.804 6.20516 23.124 5.92095C23.444 5.62095 23.8651 5.44727 24.3198 5.44727C24.7577 5.44727 25.1956 5.62095 25.4988 5.92095C25.8188 6.20516 26.004 6.61569 26.004 7.02621C26.004 7.45253 25.8188 7.84727 25.4988 8.14727C25.1956 8.44727 24.7577 8.60516 24.3198 8.60516C23.8651 8.60516 23.444 8.44727 23.124 8.14727C22.804 7.84727 22.6356 7.45253 22.6356 7.02621Z" fill="white"/>
<path fill-rule="evenodd" clip-rule="evenodd" d="M15.8988 7.4209C13.7767 7.4209 11.7388 8.21037 10.2399 9.63142C8.74091 11.0367 7.8988 12.9314 7.8988 14.9209C7.8988 16.9104 8.74091 18.8209 10.2399 20.2262C11.7388 21.6314 13.7767 22.4209 15.8988 22.4209C18.0208 22.4209 20.0419 21.6314 21.5577 20.2262C23.0566 18.8209 23.8987 16.9104 23.8987 14.9209C23.8987 12.9314 23.0566 11.0367 21.5577 9.63142C20.0419 8.21037 18.0208 7.4209 15.8988 7.4209ZM10.4251 14.9209C10.4251 13.563 10.9978 12.2683 12.0251 11.3051C13.0525 10.342 14.4335 9.78932 15.8988 9.78932C17.3472 9.78932 18.7451 10.342 19.7724 11.3051C20.7829 12.2683 21.3724 13.563 21.3724 14.9209C21.3724 16.2946 20.7829 17.5893 19.7724 18.5525C18.7451 19.5156 17.3472 20.0525 15.8988 20.0525C14.4335 20.0525 13.0525 19.5156 12.0251 18.5525C10.9978 17.5893 10.4251 16.2946 10.4251 14.9209Z" fill="white"/>
<path fill-rule="evenodd" clip-rule="evenodd" d="M24.758 0.457936C18.8633 -0.157854 12.9181 -0.157854 7.04019 0.457936C3.65492 0.805305 0.909655 3.31583 0.522287 6.50531C-0.185082 12.0948 -0.185082 17.7475 0.522287 23.3527C0.909655 26.5422 3.65492 29.0369 7.04019 29.4001C12.9181 30.0159 18.8633 30.0159 24.758 29.4001C28.1433 29.0369 30.8717 26.5422 31.2759 23.3527C31.9665 17.7475 31.9665 12.0948 31.2759 6.50531C30.8717 3.31583 28.1433 0.805305 24.758 0.457936ZM7.30966 2.81057C13.0191 2.21057 18.7623 2.21057 24.4717 2.81057C26.7117 3.04741 28.497 4.68952 28.7665 6.77373C29.4402 12.1895 29.4402 17.6527 28.7665 23.0685C28.6317 24.0948 28.1265 25.0422 27.3517 25.7527C26.577 26.4791 25.5496 26.9369 24.4717 27.0475C18.7623 27.6317 13.0191 27.6317 7.30966 27.0475C6.23176 26.9369 5.22124 26.4791 4.42966 25.7527C3.65492 25.0422 3.1665 24.0948 3.03177 23.0685C2.34124 17.6527 2.34124 12.1895 3.03177 6.77373C3.1665 5.7632 3.65492 4.81583 4.42966 4.08952C5.22124 3.37899 6.23176 2.9211 7.30966 2.81057Z" fill="white"/>
</g>
</g>
<defs>
<clipPath id="clip0_18843_6">
<rect width="32" height="30" fill="white"/>
</clipPath>
</defs>
</svg>
