<svg width="24" height="24" viewBox="0 0 24 24" fill="none" xmlns="http://www.w3.org/2000/svg">
<path d="M6.01917 4.50195C5.62798 4.50156 5.24056 4.57832 4.87907 4.72784C4.51759 4.87736 4.18914 5.0967 3.91253 5.37331C3.63591 5.64992 3.41657 5.97837 3.26705 6.33986C3.11753 6.70134 3.04078 7.08877 3.04117 7.47995C3.04117 9.71295 6.01917 13.01 6.01917 13.01C6.01917 13.01 8.99717 9.71295 8.99717 7.47995C8.99756 7.08877 8.9208 6.70134 8.77129 6.33986C8.62177 5.97837 8.40243 5.64992 8.12581 5.37331C7.8492 5.0967 7.52075 4.87736 7.15927 4.72784C6.79778 4.57832 6.41036 4.50156 6.01917 4.50195ZM6.01917 8.54295C5.80893 8.54295 5.60341 8.48061 5.4286 8.36381C5.25379 8.247 5.11754 8.08099 5.03709 7.88675C4.95663 7.69251 4.93558 7.47878 4.9766 7.27257C5.01761 7.06637 5.11885 6.87696 5.26752 6.7283C5.41618 6.57964 5.60559 6.4784 5.81179 6.43738C6.01799 6.39636 6.23172 6.41742 6.42596 6.49787C6.6202 6.57833 6.78622 6.71457 6.90302 6.88938C7.01983 7.06419 7.08217 7.26971 7.08217 7.47995C7.0819 7.7618 6.96983 8.03202 6.77053 8.23132C6.57124 8.43061 6.30101 8.54269 6.01917 8.54295Z" fill="#121214"/>
<path d="M21.0272 11.296V6.99605C21.0201 6.5445 20.9515 6.09603 20.8232 5.66305C20.495 4.51837 19.7689 3.52853 18.7755 2.87191C17.7821 2.21529 16.5869 1.93508 15.4051 2.08176C14.2234 2.22845 13.133 2.7924 12.3303 3.67197C11.5276 4.55154 11.0655 5.68889 11.0272 6.87905V7.12705L11.0172 7.99705V17.949H11.0132V17.99C11.0132 18.5205 10.8025 19.0292 10.4274 19.4043C10.0523 19.7793 9.5436 19.99 9.01317 19.99C8.48274 19.99 7.97403 19.7793 7.59895 19.4043C7.22388 19.0292 7.01317 18.5205 7.01317 17.99C7.01317 17.978 7.01617 17.966 7.01717 17.953H7.01317V16.01H5.01317V18.01H5.01517C5.01583 19.0704 5.43768 20.087 6.18792 20.8363C6.93816 21.5856 7.95533 22.0062 9.01567 22.0055C10.076 22.0049 11.0926 21.583 11.8419 20.8328C12.5912 20.0826 13.0118 19.0654 13.0112 18.005H13.0132V17.023H13.0182V8.99705L13.0282 7.12705V6.88005C13.0567 6.09281 13.3936 5.34834 13.9662 4.80733C14.5388 4.26631 15.3011 3.97213 16.0887 3.98827C16.8763 4.00442 17.626 4.3296 18.1759 4.89363C18.7258 5.45765 19.0319 6.2153 19.0282 7.00305V11.278C18.6452 11.4947 18.3445 11.8317 18.1725 12.2367C18.0006 12.6417 17.9671 13.0921 18.0772 13.5181C18.1873 13.9441 18.4349 14.3219 18.7816 14.5928C19.1282 14.8638 19.5546 15.0128 19.9946 15.0168C20.4346 15.0207 20.8636 14.8794 21.2151 14.6147C21.5665 14.3501 21.8209 13.9768 21.9387 13.5529C22.0564 13.1289 22.031 12.678 21.8664 12.27C21.7018 11.8619 21.4072 11.5196 21.0282 11.296H21.0272Z" fill="#121214"/>
</svg>
