<svg width="13" height="16" viewBox="0 0 13 16" fill="none" xmlns="http://www.w3.org/2000/svg">
<path d="M8.10333 10.25C10.985 10.25 13 8.15968 13 5.15484C13 2.15 10.985 0.125 8.10333 0.125H2.57292C2.34857 0.125 2.16667 0.313895 2.16667 0.546875V7.81128H0.40625C0.181898 7.81128 0 8.00018 0 8.23316V9.82812C0 10.0611 0.181898 10.25 0.40625 10.25H2.16667V11.375H0.40625C0.181898 11.375 0 11.5639 0 11.7969V13.2031C0 13.4361 0.181898 13.625 0.40625 13.625H2.16667V15.4531C2.16667 15.6861 2.34857 15.875 2.57292 15.875H4.55542C4.77977 15.875 4.96167 15.6861 4.96167 15.4531V13.625H10.4271C10.6514 13.625 10.8333 13.4361 10.8333 13.2031V11.7969C10.8333 11.5639 10.6514 11.375 10.4271 11.375H4.96167V10.25H8.10333ZM4.96167 2.54192H7.62667C9.20833 2.54192 10.1617 3.56532 10.1617 5.15484C10.1617 6.76612 9.20833 7.81128 7.58333 7.81128H4.96167V2.54192Z" fill="#121214"/>
</svg>
